<?xml version="1.0" standalone="no"?><!DOCTYPE svg PUBLIC "-//W3C//DTD SVG 1.1//EN" "http://www.w3.org/Graphics/SVG/1.1/DTD/svg11.dtd"><svg t="1744895860121" class="icon" viewBox="0 0 1024 1024" version="1.1" xmlns="http://www.w3.org/2000/svg" p-id="3027" xmlns:xlink="http://www.w3.org/1999/xlink" width="200" height="200"><path d="M767.916 776.809h-73.694v-266.09c0-50.285-7.022-86.251-21.051-107.903-14.044-21.646-37.1-32.478-69.182-32.478-27.071 0-50.256 14.112-69.556 42.32-19.3 28.224-28.947 61.601-28.947 100.152v263.991h-73.692V502.34c0-88.004-30.445-132.002-91.358-132.002-28.074 0-51.313 13.41-69.74 40.235-18.42 26.812-27.63 61.036-27.63 102.66v263.575h-73.687V313.346h73.678v73.334h1.501c29.58-56.148 72.814-84.22 129.71-84.22 27.828 0 52.385 8.521 73.693 25.557 21.3 17.043 36.092 40.086 44.36 69.14 30.835-63.134 76.947-94.697 138.356-94.697 91.493 0 137.237 62.854 137.237 188.564V776.81zM930.54 357.884h-58.833l25.258-24.686c16.477-16.327 27.426-29.518 33.493-40.372 6.299-11.255 9.496-22.952 9.496-34.774 0-16.144-5.297-29.274-15.748-39.036-10.3-9.617-24.263-14.492-41.503-14.492-19.429 0-36.745 5.74-51.444 17.076a7.852 7.852 0 0 0-3.074 6.237v21.788a7.902 7.902 0 0 0 4.745 7.233 8.068 8.068 0 0 0 3.143 0.648 7.907 7.907 0 0 0 5.385-2.128c12.312-11.527 24.7-17.138 37.843-17.138 8.078 0 14.132 1.86 17.99 5.543 3.811 3.62 5.659 9.012 5.659 16.463 0 7.11-1.91 13.854-5.83 20.61-4.232 7.294-12.986 17.602-26.014 30.622l-49.254 49.145a7.892 7.892 0 0 0-2.318 5.576v18.618c0 4.35 3.538 7.882 7.88 7.882h103.117c4.357 0 7.888-3.532 7.888-7.882v-19.054c0.001-4.348-3.53-7.879-7.88-7.879z" fill="#707070" p-id="3028"></path></svg>